# 3ds Max Wavefront OBJ Exporter v0.97b - (c)2007 guruware
# File Created: 04.04.2014 15:31:03

#
# object ChoppedCone
#

v  0.0000 -50.0000 -0.0000
v  48.2963 -50.0000 -12.9410
v  50.0000 -50.0000 -0.0000
v  43.3013 -50.0000 -25.0000
v  35.3553 -50.0000 -35.3553
v  25.0000 -50.0000 -43.3013
v  12.9410 -50.0000 -48.2963
v  0.0000 -50.0000 -50.0000
v  -12.9409 -50.0000 -48.2963
v  -25.0000 -50.0000 -43.3013
v  -35.3553 -50.0000 -35.3553
v  -43.3013 -50.0000 -25.0000
v  -48.2963 -50.0000 -12.9410
v  -50.0000 -50.0000 -0.0000
v  -48.2963 -50.0000 12.9409
v  -43.3013 -50.0000 25.0000
v  -35.3554 -50.0000 35.3553
v  -25.0000 -50.0000 43.3013
v  -12.9410 -50.0000 48.2963
v  -0.0000 -50.0000 50.0000
v  12.9409 -50.0000 48.2963
v  25.0000 -50.0000 43.3013
v  35.3553 -50.0000 35.3554
v  43.3013 -50.0000 25.0000
v  48.2963 -50.0000 12.9410
v  43.4667 -30.0000 -11.6469
v  45.0000 -30.0000 -0.0000
v  38.9711 -30.0000 -22.5000
v  31.8198 -30.0000 -31.8198
v  22.5000 -30.0000 -38.9711
v  11.6469 -30.0000 -43.4667
v  0.0000 -30.0000 -45.0000
v  -11.6469 -30.0000 -43.4667
v  -22.5000 -30.0000 -38.9711
v  -31.8198 -30.0000 -31.8198
v  -38.9711 -30.0000 -22.5000
v  -43.4667 -30.0000 -11.6469
v  -45.0000 -30.0000 -0.0000
v  -43.4667 -30.0000 11.6468
v  -38.9712 -30.0000 22.5000
v  -31.8198 -30.0000 31.8198
v  -22.5000 -30.0000 38.9711
v  -11.6469 -30.0000 43.4667
v  -0.0000 -30.0000 45.0000
v  11.6468 -30.0000 43.4667
v  22.5000 -30.0000 38.9712
v  31.8198 -30.0000 31.8198
v  38.9711 -30.0000 22.5000
v  43.4667 -30.0000 11.6469
v  38.6370 -10.0000 -10.3528
v  40.0000 -10.0000 -0.0000
v  34.6410 -10.0000 -20.0000
v  28.2843 -10.0000 -28.2843
v  20.0000 -10.0000 -34.6410
v  10.3528 -10.0000 -38.6370
v  0.0000 -10.0000 -40.0000
v  -10.3528 -10.0000 -38.6370
v  -20.0000 -10.0000 -34.6410
v  -28.2843 -10.0000 -28.2843
v  -34.6410 -10.0000 -20.0000
v  -38.6370 -10.0000 -10.3528
v  -40.0000 -10.0000 -0.0000
v  -38.6370 -10.0000 10.3527
v  -34.6410 -10.0000 20.0000
v  -28.2843 -10.0000 28.2843
v  -20.0000 -10.0000 34.6410
v  -10.3528 -10.0000 38.6370
v  -0.0000 -10.0000 40.0000
v  10.3527 -10.0000 38.6370
v  20.0000 -10.0000 34.6410
v  28.2843 -10.0000 28.2843
v  34.6410 -10.0000 20.0000
v  38.6370 -10.0000 10.3528
v  33.8074 10.0000 -9.0587
v  35.0000 10.0000 -0.0000
v  30.3109 10.0000 -17.5000
v  24.7487 10.0000 -24.7487
v  17.5000 10.0000 -30.3109
v  9.0587 10.0000 -33.8074
v  0.0000 10.0000 -35.0000
v  -9.0587 10.0000 -33.8074
v  -17.5000 10.0000 -30.3109
v  -24.7487 10.0000 -24.7487
v  -30.3109 10.0000 -17.5000
v  -33.8074 10.0000 -9.0587
v  -35.0000 10.0000 -0.0000
v  -33.8074 10.0000 9.0587
v  -30.3109 10.0000 17.5000
v  -24.7488 10.0000 24.7487
v  -17.5000 10.0000 30.3109
v  -9.0587 10.0000 33.8074
v  -0.0000 10.0000 35.0000
v  9.0586 10.0000 33.8074
v  17.5000 10.0000 30.3109
v  24.7487 10.0000 24.7488
v  30.3109 10.0000 17.5000
v  33.8074 10.0000 9.0587
v  28.9778 30.0000 -7.7646
v  30.0000 30.0000 -0.0000
v  25.9808 30.0000 -15.0000
v  21.2132 30.0000 -21.2132
v  15.0000 30.0000 -25.9808
v  7.7646 30.0000 -28.9778
v  0.0000 30.0000 -30.0000
v  -7.7646 30.0000 -28.9778
v  -15.0000 30.0000 -25.9808
v  -21.2132 30.0000 -21.2132
v  -25.9808 30.0000 -15.0000
v  -28.9778 30.0000 -7.7646
v  -30.0000 30.0000 -0.0000
v  -28.9778 30.0000 7.7646
v  -25.9808 30.0000 15.0000
v  -21.2132 30.0000 21.2132
v  -15.0000 30.0000 25.9808
v  -7.7646 30.0000 28.9778
v  -0.0000 30.0000 30.0000
v  7.7646 30.0000 28.9778
v  15.0000 30.0000 25.9808
v  21.2132 30.0000 21.2132
v  25.9808 30.0000 15.0000
v  28.9778 30.0000 7.7646
v  24.1481 50.0000 -6.4705
v  25.0000 50.0000 -0.0000
v  21.6506 50.0000 -12.5000
v  17.6777 50.0000 -17.6777
v  12.5000 50.0000 -21.6506
v  6.4705 50.0000 -24.1481
v  0.0000 50.0000 -25.0000
v  -6.4705 50.0000 -24.1481
v  -12.5000 50.0000 -21.6506
v  -17.6777 50.0000 -17.6777
v  -21.6506 50.0000 -12.5000
v  -24.1481 50.0000 -6.4705
v  -25.0000 50.0000 -0.0000
v  -24.1481 50.0000 6.4705
v  -21.6506 50.0000 12.5000
v  -17.6777 50.0000 17.6777
v  -12.5000 50.0000 21.6506
v  -6.4705 50.0000 24.1481
v  -0.0000 50.0000 25.0000
v  6.4705 50.0000 24.1481
v  12.5000 50.0000 21.6506
v  17.6777 50.0000 17.6777
v  21.6506 50.0000 12.5000
v  24.1481 50.0000 6.4705
v  0.0000 50.0000 -0.0000
# 146 vertices

vn 0.0000 -1.0000 -0.0000
vn 0.9701 0.2425 0.0000
vn 0.9371 0.2425 -0.2511
vn 0.8402 0.2425 -0.4851
vn 0.6860 0.2425 -0.6860
vn 0.4851 0.2425 -0.8402
vn 0.2511 0.2425 -0.9371
vn 0.0000 0.2425 -0.9701
vn -0.2511 0.2425 -0.9371
vn -0.4851 0.2425 -0.8402
vn -0.6860 0.2425 -0.6860
vn -0.8402 0.2425 -0.4851
vn -0.9371 0.2425 -0.2511
vn -0.9701 0.2425 -0.0000
vn -0.9371 0.2425 0.2511
vn -0.8402 0.2425 0.4851
vn -0.6860 0.2425 0.6860
vn -0.4851 0.2425 0.8402
vn -0.2511 0.2425 0.9371
vn -0.0000 0.2425 0.9701
vn 0.2511 0.2425 0.9371
vn 0.4851 0.2425 0.8402
vn 0.6860 0.2425 0.6860
vn 0.8402 0.2425 0.4851
vn 0.9371 0.2425 0.2511
vn 0.0000 1.0000 -0.0000
# 26 vertex normals

vt 0.5000 0.0000 0.0000
vt 0.7917 0.0000 1.0000
vt 0.7500 0.0000 1.0000
vt 0.8333 0.0000 1.0000
vt 0.8750 0.0000 1.0000
vt 0.9167 0.0000 1.0000
vt 0.9583 0.0000 1.0000
vt 1.0000 0.0000 1.0000
vt 0.0417 0.0000 1.0000
vt -0.0000 0.0000 1.0000
vt 0.0833 0.0000 1.0000
vt 0.1250 0.0000 1.0000
vt 0.1667 0.0000 1.0000
vt 0.2083 0.0000 1.0000
vt 0.2500 0.0000 1.0000
vt 0.2917 0.0000 1.0000
vt 0.3333 0.0000 1.0000
vt 0.3750 0.0000 1.0000
vt 0.4167 0.0000 1.0000
vt 0.4583 0.0000 1.0000
vt 0.5000 0.0000 1.0000
vt 0.5417 0.0000 1.0000
vt 0.5833 0.0000 1.0000
vt 0.6250 0.0000 1.0000
vt 0.6667 0.0000 1.0000
vt 0.7083 0.0000 1.0000
vt 0.7917 0.2000 0.9000
vt 0.7500 0.2000 0.9000
vt 0.8333 0.2000 0.9000
vt 0.8750 0.2000 0.9000
vt 0.9167 0.2000 0.9000
vt 0.9583 0.2000 0.9000
vt 1.0000 0.2000 0.9000
vt 0.0417 0.2000 0.9000
vt -0.0000 0.2000 0.9000
vt 0.0833 0.2000 0.9000
vt 0.1250 0.2000 0.9000
vt 0.1667 0.2000 0.9000
vt 0.2083 0.2000 0.9000
vt 0.2500 0.2000 0.9000
vt 0.2917 0.2000 0.9000
vt 0.3333 0.2000 0.9000
vt 0.3750 0.2000 0.9000
vt 0.4167 0.2000 0.9000
vt 0.4583 0.2000 0.9000
vt 0.5000 0.2000 0.9000
vt 0.5417 0.2000 0.9000
vt 0.5833 0.2000 0.9000
vt 0.6250 0.2000 0.9000
vt 0.6667 0.2000 0.9000
vt 0.7083 0.2000 0.9000
vt 0.7917 0.4000 0.8000
vt 0.7500 0.4000 0.8000
vt 0.8333 0.4000 0.8000
vt 0.8750 0.4000 0.8000
vt 0.9167 0.4000 0.8000
vt 0.9583 0.4000 0.8000
vt 1.0000 0.4000 0.8000
vt 0.0417 0.4000 0.8000
vt -0.0000 0.4000 0.8000
vt 0.0833 0.4000 0.8000
vt 0.1250 0.4000 0.8000
vt 0.1667 0.4000 0.8000
vt 0.2083 0.4000 0.8000
vt 0.2500 0.4000 0.8000
vt 0.2917 0.4000 0.8000
vt 0.3333 0.4000 0.8000
vt 0.3750 0.4000 0.8000
vt 0.4167 0.4000 0.8000
vt 0.4583 0.4000 0.8000
vt 0.5000 0.4000 0.8000
vt 0.5417 0.4000 0.8000
vt 0.5833 0.4000 0.8000
vt 0.6250 0.4000 0.8000
vt 0.6667 0.4000 0.8000
vt 0.7083 0.4000 0.8000
vt 0.7917 0.6000 0.7000
vt 0.7500 0.6000 0.7000
vt 0.8333 0.6000 0.7000
vt 0.8750 0.6000 0.7000
vt 0.9167 0.6000 0.7000
vt 0.9583 0.6000 0.7000
vt 1.0000 0.6000 0.7000
vt 0.0417 0.6000 0.7000
vt -0.0000 0.6000 0.7000
vt 0.0833 0.6000 0.7000
vt 0.1250 0.6000 0.7000
vt 0.1667 0.6000 0.7000
vt 0.2083 0.6000 0.7000
vt 0.2500 0.6000 0.7000
vt 0.2917 0.6000 0.7000
vt 0.3333 0.6000 0.7000
vt 0.3750 0.6000 0.7000
vt 0.4167 0.6000 0.7000
vt 0.4583 0.6000 0.7000
vt 0.5000 0.6000 0.7000
vt 0.5417 0.6000 0.7000
vt 0.5833 0.6000 0.7000
vt 0.6250 0.6000 0.7000
vt 0.6667 0.6000 0.7000
vt 0.7083 0.6000 0.7000
vt 0.7917 0.8000 0.6000
vt 0.7500 0.8000 0.6000
vt 0.8333 0.8000 0.6000
vt 0.8750 0.8000 0.6000
vt 0.9167 0.8000 0.6000
vt 0.9583 0.8000 0.6000
vt 1.0000 0.8000 0.6000
vt 0.0417 0.8000 0.6000
vt -0.0000 0.8000 0.6000
vt 0.0833 0.8000 0.6000
vt 0.1250 0.8000 0.6000
vt 0.1667 0.8000 0.6000
vt 0.2083 0.8000 0.6000
vt 0.2500 0.8000 0.6000
vt 0.2917 0.8000 0.6000
vt 0.3333 0.8000 0.6000
vt 0.3750 0.8000 0.6000
vt 0.4167 0.8000 0.6000
vt 0.4583 0.8000 0.6000
vt 0.5000 0.8000 0.6000
vt 0.5417 0.8000 0.6000
vt 0.5833 0.8000 0.6000
vt 0.6250 0.8000 0.6000
vt 0.6667 0.8000 0.6000
vt 0.7083 0.8000 0.6000
vt 0.7917 1.0000 0.5000
vt 0.7500 1.0000 0.5000
vt 0.8333 1.0000 0.5000
vt 0.8750 1.0000 0.5000
vt 0.9167 1.0000 0.5000
vt 0.9583 1.0000 0.5000
vt 1.0000 1.0000 0.5000
vt 0.0417 1.0000 0.5000
vt -0.0000 1.0000 0.5000
vt 0.0833 1.0000 0.5000
vt 0.1250 1.0000 0.5000
vt 0.1667 1.0000 0.5000
vt 0.2083 1.0000 0.5000
vt 0.2500 1.0000 0.5000
vt 0.2917 1.0000 0.5000
vt 0.3333 1.0000 0.5000
vt 0.3750 1.0000 0.5000
vt 0.4167 1.0000 0.5000
vt 0.4583 1.0000 0.5000
vt 0.5000 1.0000 0.5000
vt 0.5417 1.0000 0.5000
vt 0.5833 1.0000 0.5000
vt 0.6250 1.0000 0.5000
vt 0.6667 1.0000 0.5000
vt 0.7083 1.0000 0.5000
vt 0.5000 1.0000 0.0000
# 152 texture coords

g ChoppedCone
s 1
f 1/1/1 2/2/1 3/3/1 
f 1/1/1 4/4/1 2/2/1 
f 1/1/1 5/5/1 4/4/1 
f 1/1/1 6/6/1 5/5/1 
f 1/1/1 7/7/1 6/6/1 
f 1/1/1 8/8/1 7/7/1 
f 1/1/1 9/9/1 8/10/1 
f 1/1/1 10/11/1 9/9/1 
f 1/1/1 11/12/1 10/11/1 
f 1/1/1 12/13/1 11/12/1 
f 1/1/1 13/14/1 12/13/1 
f 1/1/1 14/15/1 13/14/1 
f 1/1/1 15/16/1 14/15/1 
f 1/1/1 16/17/1 15/16/1 
f 1/1/1 17/18/1 16/17/1 
f 1/1/1 18/19/1 17/18/1 
f 1/1/1 19/20/1 18/19/1 
f 1/1/1 20/21/1 19/20/1 
f 1/1/1 21/22/1 20/21/1 
f 1/1/1 22/23/1 21/22/1 
f 1/1/1 23/24/1 22/23/1 
f 1/1/1 24/25/1 23/24/1 
f 1/1/1 25/26/1 24/25/1 
f 1/1/1 3/3/1 25/26/1 
s 8
f 3/3/2 26/27/3 27/28/2 
f 3/3/2 2/2/3 26/27/3 
f 2/2/3 28/29/4 26/27/3 
f 2/2/3 4/4/4 28/29/4 
f 4/4/4 29/30/5 28/29/4 
f 4/4/4 5/5/5 29/30/5 
f 5/5/5 30/31/6 29/30/5 
f 5/5/5 6/6/6 30/31/6 
f 6/6/6 31/32/7 30/31/6 
f 6/6/6 7/7/7 31/32/7 
f 7/7/7 32/33/8 31/32/7 
f 7/7/7 8/8/8 32/33/8 
f 8/10/8 33/34/9 32/35/8 
f 8/10/8 9/9/9 33/34/9 
f 9/9/9 34/36/10 33/34/9 
f 9/9/9 10/11/10 34/36/10 
f 10/11/10 35/37/11 34/36/10 
f 10/11/10 11/12/11 35/37/11 
f 11/12/11 36/38/12 35/37/11 
f 11/12/11 12/13/12 36/38/12 
f 12/13/12 37/39/13 36/38/12 
f 12/13/12 13/14/13 37/39/13 
f 13/14/13 38/40/14 37/39/13 
f 13/14/13 14/15/14 38/40/14 
f 14/15/14 39/41/15 38/40/14 
f 14/15/14 15/16/15 39/41/15 
f 15/16/15 40/42/16 39/41/15 
f 15/16/15 16/17/16 40/42/16 
f 16/17/16 41/43/17 40/42/16 
f 16/17/16 17/18/17 41/43/17 
f 17/18/17 42/44/18 41/43/17 
f 17/18/17 18/19/18 42/44/18 
f 18/19/18 43/45/19 42/44/18 
f 18/19/18 19/20/19 43/45/19 
f 19/20/19 44/46/20 43/45/19 
f 19/20/19 20/21/20 44/46/20 
f 20/21/20 45/47/21 44/46/20 
f 20/21/20 21/22/21 45/47/21 
f 21/22/21 46/48/22 45/47/21 
f 21/22/21 22/23/22 46/48/22 
f 22/23/22 47/49/23 46/48/22 
f 22/23/22 23/24/23 47/49/23 
f 23/24/23 48/50/24 47/49/23 
f 23/24/23 24/25/24 48/50/24 
f 24/25/24 49/51/25 48/50/24 
f 24/25/24 25/26/25 49/51/25 
f 25/26/25 27/28/2 49/51/25 
f 25/26/25 3/3/2 27/28/2 
f 27/28/2 50/52/3 51/53/2 
f 27/28/2 26/27/3 50/52/3 
f 26/27/3 52/54/4 50/52/3 
f 26/27/3 28/29/4 52/54/4 
f 28/29/4 53/55/5 52/54/4 
f 28/29/4 29/30/5 53/55/5 
f 29/30/5 54/56/6 53/55/5 
f 29/30/5 30/31/6 54/56/6 
f 30/31/6 55/57/7 54/56/6 
f 30/31/6 31/32/7 55/57/7 
f 31/32/7 56/58/8 55/57/7 
f 31/32/7 32/33/8 56/58/8 
f 32/35/8 57/59/9 56/60/8 
f 32/35/8 33/34/9 57/59/9 
f 33/34/9 58/61/10 57/59/9 
f 33/34/9 34/36/10 58/61/10 
f 34/36/10 59/62/11 58/61/10 
f 34/36/10 35/37/11 59/62/11 
f 35/37/11 60/63/12 59/62/11 
f 35/37/11 36/38/12 60/63/12 
f 36/38/12 61/64/13 60/63/12 
f 36/38/12 37/39/13 61/64/13 
f 37/39/13 62/65/14 61/64/13 
f 37/39/13 38/40/14 62/65/14 
f 38/40/14 63/66/15 62/65/14 
f 38/40/14 39/41/15 63/66/15 
f 39/41/15 64/67/16 63/66/15 
f 39/41/15 40/42/16 64/67/16 
f 40/42/16 65/68/17 64/67/16 
f 40/42/16 41/43/17 65/68/17 
f 41/43/17 66/69/18 65/68/17 
f 41/43/17 42/44/18 66/69/18 
f 42/44/18 67/70/19 66/69/18 
f 42/44/18 43/45/19 67/70/19 
f 43/45/19 68/71/20 67/70/19 
f 43/45/19 44/46/20 68/71/20 
f 44/46/20 69/72/21 68/71/20 
f 44/46/20 45/47/21 69/72/21 
f 45/47/21 70/73/22 69/72/21 
f 45/47/21 46/48/22 70/73/22 
f 46/48/22 71/74/23 70/73/22 
f 46/48/22 47/49/23 71/74/23 
f 47/49/23 72/75/24 71/74/23 
f 47/49/23 48/50/24 72/75/24 
f 48/50/24 73/76/25 72/75/24 
f 48/50/24 49/51/25 73/76/25 
f 49/51/25 51/53/2 73/76/25 
f 49/51/25 27/28/2 51/53/2 
f 51/53/2 74/77/3 75/78/2 
f 51/53/2 50/52/3 74/77/3 
f 50/52/3 76/79/4 74/77/3 
f 50/52/3 52/54/4 76/79/4 
f 52/54/4 77/80/5 76/79/4 
f 52/54/4 53/55/5 77/80/5 
f 53/55/5 78/81/6 77/80/5 
f 53/55/5 54/56/6 78/81/6 
f 54/56/6 79/82/7 78/81/6 
f 54/56/6 55/57/7 79/82/7 
f 55/57/7 80/83/8 79/82/7 
f 55/57/7 56/58/8 80/83/8 
f 56/60/8 81/84/9 80/85/8 
f 56/60/8 57/59/9 81/84/9 
f 57/59/9 82/86/10 81/84/9 
f 57/59/9 58/61/10 82/86/10 
f 58/61/10 83/87/11 82/86/10 
f 58/61/10 59/62/11 83/87/11 
f 59/62/11 84/88/12 83/87/11 
f 59/62/11 60/63/12 84/88/12 
f 60/63/12 85/89/13 84/88/12 
f 60/63/12 61/64/13 85/89/13 
f 61/64/13 86/90/14 85/89/13 
f 61/64/13 62/65/14 86/90/14 
f 62/65/14 87/91/15 86/90/14 
f 62/65/14 63/66/15 87/91/15 
f 63/66/15 88/92/16 87/91/15 
f 63/66/15 64/67/16 88/92/16 
f 64/67/16 89/93/17 88/92/16 
f 64/67/16 65/68/17 89/93/17 
f 65/68/17 90/94/18 89/93/17 
f 65/68/17 66/69/18 90/94/18 
f 66/69/18 91/95/19 90/94/18 
f 66/69/18 67/70/19 91/95/19 
f 67/70/19 92/96/20 91/95/19 
f 67/70/19 68/71/20 92/96/20 
f 68/71/20 93/97/21 92/96/20 
f 68/71/20 69/72/21 93/97/21 
f 69/72/21 94/98/22 93/97/21 
f 69/72/21 70/73/22 94/98/22 
f 70/73/22 95/99/23 94/98/22 
f 70/73/22 71/74/23 95/99/23 
f 71/74/23 96/100/24 95/99/23 
f 71/74/23 72/75/24 96/100/24 
f 72/75/24 97/101/25 96/100/24 
f 72/75/24 73/76/25 97/101/25 
f 73/76/25 75/78/2 97/101/25 
f 73/76/25 51/53/2 75/78/2 
f 75/78/2 98/102/3 99/103/2 
f 75/78/2 74/77/3 98/102/3 
f 74/77/3 100/104/4 98/102/3 
f 74/77/3 76/79/4 100/104/4 
f 76/79/4 101/105/5 100/104/4 
f 76/79/4 77/80/5 101/105/5 
f 77/80/5 102/106/6 101/105/5 
f 77/80/5 78/81/6 102/106/6 
f 78/81/6 103/107/7 102/106/6 
f 78/81/6 79/82/7 103/107/7 
f 79/82/7 104/108/8 103/107/7 
f 79/82/7 80/83/8 104/108/8 
f 80/85/8 105/109/9 104/110/8 
f 80/85/8 81/84/9 105/109/9 
f 81/84/9 106/111/10 105/109/9 
f 81/84/9 82/86/10 106/111/10 
f 82/86/10 107/112/11 106/111/10 
f 82/86/10 83/87/11 107/112/11 
f 83/87/11 108/113/12 107/112/11 
f 83/87/11 84/88/12 108/113/12 
f 84/88/12 109/114/13 108/113/12 
f 84/88/12 85/89/13 109/114/13 
f 85/89/13 110/115/14 109/114/13 
f 85/89/13 86/90/14 110/115/14 
f 86/90/14 111/116/15 110/115/14 
f 86/90/14 87/91/15 111/116/15 
f 87/91/15 112/117/16 111/116/15 
f 87/91/15 88/92/16 112/117/16 
f 88/92/16 113/118/17 112/117/16 
f 88/92/16 89/93/17 113/118/17 
f 89/93/17 114/119/18 113/118/17 
f 89/93/17 90/94/18 114/119/18 
f 90/94/18 115/120/19 114/119/18 
f 90/94/18 91/95/19 115/120/19 
f 91/95/19 116/121/20 115/120/19 
f 91/95/19 92/96/20 116/121/20 
f 92/96/20 117/122/21 116/121/20 
f 92/96/20 93/97/21 117/122/21 
f 93/97/21 118/123/22 117/122/21 
f 93/97/21 94/98/22 118/123/22 
f 94/98/22 119/124/23 118/123/22 
f 94/98/22 95/99/23 119/124/23 
f 95/99/23 120/125/24 119/124/23 
f 95/99/23 96/100/24 120/125/24 
f 96/100/24 121/126/25 120/125/24 
f 96/100/24 97/101/25 121/126/25 
f 97/101/25 99/103/2 121/126/25 
f 97/101/25 75/78/2 99/103/2 
f 99/103/2 122/127/3 123/128/2 
f 99/103/2 98/102/3 122/127/3 
f 98/102/3 124/129/4 122/127/3 
f 98/102/3 100/104/4 124/129/4 
f 100/104/4 125/130/5 124/129/4 
f 100/104/4 101/105/5 125/130/5 
f 101/105/5 126/131/6 125/130/5 
f 101/105/5 102/106/6 126/131/6 
f 102/106/6 127/132/7 126/131/6 
f 102/106/6 103/107/7 127/132/7 
f 103/107/7 128/133/8 127/132/7 
f 103/107/7 104/108/8 128/133/8 
f 104/110/8 129/134/9 128/135/8 
f 104/110/8 105/109/9 129/134/9 
f 105/109/9 130/136/10 129/134/9 
f 105/109/9 106/111/10 130/136/10 
f 106/111/10 131/137/11 130/136/10 
f 106/111/10 107/112/11 131/137/11 
f 107/112/11 132/138/12 131/137/11 
f 107/112/11 108/113/12 132/138/12 
f 108/113/12 133/139/13 132/138/12 
f 108/113/12 109/114/13 133/139/13 
f 109/114/13 134/140/14 133/139/13 
f 109/114/13 110/115/14 134/140/14 
f 110/115/14 135/141/15 134/140/14 
f 110/115/14 111/116/15 135/141/15 
f 111/116/15 136/142/16 135/141/15 
f 111/116/15 112/117/16 136/142/16 
f 112/117/16 137/143/17 136/142/16 
f 112/117/16 113/118/17 137/143/17 
f 113/118/17 138/144/18 137/143/17 
f 113/118/17 114/119/18 138/144/18 
f 114/119/18 139/145/19 138/144/18 
f 114/119/18 115/120/19 139/145/19 
f 115/120/19 140/146/20 139/145/19 
f 115/120/19 116/121/20 140/146/20 
f 116/121/20 141/147/21 140/146/20 
f 116/121/20 117/122/21 141/147/21 
f 117/122/21 142/148/22 141/147/21 
f 117/122/21 118/123/22 142/148/22 
f 118/123/22 143/149/23 142/148/22 
f 118/123/22 119/124/23 143/149/23 
f 119/124/23 144/150/24 143/149/23 
f 119/124/23 120/125/24 144/150/24 
f 120/125/24 145/151/25 144/150/24 
f 120/125/24 121/126/25 145/151/25 
f 121/126/25 123/128/2 145/151/25 
f 121/126/25 99/103/2 123/128/2 
s 1
f 146/152/26 123/128/26 122/127/26 
f 146/152/26 122/127/26 124/129/26 
f 146/152/26 124/129/26 125/130/26 
f 146/152/26 125/130/26 126/131/26 
f 146/152/26 126/131/26 127/132/26 
f 146/152/26 127/132/26 128/133/26 
f 146/152/26 128/135/26 129/134/26 
f 146/152/26 129/134/26 130/136/26 
f 146/152/26 130/136/26 131/137/26 
f 146/152/26 131/137/26 132/138/26 
f 146/152/26 132/138/26 133/139/26 
f 146/152/26 133/139/26 134/140/26 
f 146/152/26 134/140/26 135/141/26 
f 146/152/26 135/141/26 136/142/26 
f 146/152/26 136/142/26 137/143/26 
f 146/152/26 137/143/26 138/144/26 
f 146/152/26 138/144/26 139/145/26 
f 146/152/26 139/145/26 140/146/26 
f 146/152/26 140/146/26 141/147/26 
f 146/152/26 141/147/26 142/148/26 
f 146/152/26 142/148/26 143/149/26 
f 146/152/26 143/149/26 144/150/26 
f 146/152/26 144/150/26 145/151/26 
f 146/152/26 145/151/26 123/128/26 
# 288 faces

